<svg width="490" height="920" viewBox="0 0 490 920" fill="none" xmlns="http://www.w3.org/2000/svg">
<g filter="url(#filter0_d_2020_10495)">
<path d="M38 145.716C38 144.712 38.8135 143.898 39.8171 143.898H48.3594C49.3629 143.898 50.1765 144.712 50.1765 145.716V175.567C50.1765 176.57 49.3629 177.384 48.3594 177.384H39.8171C38.8135 177.384 38 176.57 38 175.567V145.716Z" fill="#EBECF0"/>
<path d="M38 206.598C38 205.594 38.8135 204.781 39.8171 204.781H48.3594C49.3629 204.781 50.1765 205.594 50.1765 206.598V266.89C50.1765 267.894 49.3629 268.707 48.3594 268.707H39.8171C38.8135 268.707 38 267.894 38 266.89V206.598Z" fill="#EBECF0"/>
<path d="M38 288.789C38 287.786 38.8135 286.972 39.8171 286.972H48.3594C49.3629 286.972 50.1765 287.786 50.1765 288.789V349.081C50.1765 350.085 49.3629 350.899 48.3594 350.899H39.8171C38.8135 350.899 38 350.085 38 349.081V288.789Z" fill="#EBECF0"/>
<path d="M439.823 230.951C439.823 229.947 440.637 229.134 441.64 229.134H450.183C451.186 229.134 452 229.947 452 230.951V324.729C452 325.732 451.186 326.546 450.183 326.546H441.64C440.637 326.546 439.823 325.732 439.823 324.729V230.951Z" fill="#EBECF0"/>
<path d="M41.043 47.5249C41.043 28.4573 56.5003 13 75.5679 13H414.429C433.497 13 448.954 28.4573 448.954 47.5249V821.694C448.954 840.762 433.497 856.219 414.429 856.219H75.5679C56.5003 856.219 41.043 840.762 41.043 821.694V47.5249Z" fill="#F5F5F5"/>
<path d="M59.3086 54.6038C59.3086 41.7145 69.7575 31.2656 82.6468 31.2656H407.352C420.241 31.2656 430.69 41.7145 430.69 54.6038V814.617C430.69 827.506 420.241 837.955 407.352 837.955H82.6468C69.7575 837.955 59.3086 827.506 59.3086 814.617V54.6038Z" fill="white"/>
<rect width="371.382" height="806.691" transform="translate(59.3086 31.2656)" fill="#BCBCBC"/>
<g clip-path="url(#clip0_2020_10495)">
<rect width="372" height="822" transform="translate(59 31)" fill="white"/>
<rect x="59" y="31" width="372" height="24" fill="white"/>
<path fill-rule="evenodd" clip-rule="evenodd" d="M364.375 37H363.316C362.731 37 362.257 37.5037 362.257 38.125V47.875C362.257 48.4963 362.731 49 363.316 49H364.375C364.96 49 365.434 48.4963 365.434 47.875V38.125C365.434 37.5037 364.96 37 364.375 37ZM358.375 39.625H359.434C360.018 39.625 360.492 40.1287 360.492 40.75V47.875C360.492 48.4963 360.018 49 359.434 49H358.375C357.79 49 357.316 48.4963 357.316 47.875V40.75C357.316 40.1287 357.79 39.625 358.375 39.625ZM354.492 42.25H353.434C352.849 42.25 352.375 42.7537 352.375 43.375V47.875C352.375 48.4963 352.849 49 353.434 49H354.492C355.077 49 355.551 48.4963 355.551 47.875V43.375C355.551 42.7537 355.077 42.25 354.492 42.25ZM349.551 44.5H348.492C347.908 44.5 347.434 45.0037 347.434 45.625V47.875C347.434 48.4963 347.908 49 348.492 49H349.551C350.136 49 350.61 48.4963 350.61 47.875V45.625C350.61 45.0037 350.136 44.5 349.551 44.5Z" fill="black"/>
<path fill-rule="evenodd" clip-rule="evenodd" d="M379.434 39.4922C381.755 39.4923 383.988 40.424 385.671 42.0948C385.797 42.2238 386 42.2222 386.125 42.0912L387.336 40.8145C387.399 40.748 387.434 40.658 387.434 40.5644C387.433 40.4707 387.397 40.3811 387.333 40.3155C382.917 35.8948 375.95 35.8948 371.534 40.3155C371.47 40.3811 371.434 40.4706 371.434 40.5643C371.433 40.6579 371.468 40.748 371.531 40.8145L372.743 42.0912C372.867 42.2224 373.07 42.224 373.197 42.0948C374.879 40.4239 377.112 39.4922 379.434 39.4922ZM379.434 43.6459C380.71 43.6458 381.939 44.141 382.885 45.0353C383.013 45.1622 383.214 45.1595 383.339 45.0291L384.549 43.7524C384.612 43.6854 384.648 43.5946 384.647 43.5002C384.646 43.4058 384.609 43.3157 384.544 43.2501C381.665 40.4526 377.206 40.4526 374.327 43.2501C374.262 43.3157 374.225 43.4058 374.224 43.5003C374.223 43.5947 374.258 43.6855 374.322 43.7524L375.532 45.0291C375.656 45.1595 375.858 45.1622 375.986 45.0353C376.93 44.1416 378.159 43.6464 379.434 43.6459ZM381.857 46.4406C381.859 46.5353 381.823 46.6265 381.759 46.6929L379.666 48.8987C379.605 48.9635 379.521 49 379.434 49C379.347 49 379.263 48.9635 379.202 48.8987L377.109 46.6929C377.044 46.6265 377.009 46.5352 377.011 46.4405C377.013 46.3459 377.052 46.2562 377.119 46.1928C378.455 45.0121 380.413 45.0121 381.749 46.1928C381.816 46.2563 381.855 46.3459 381.857 46.4406Z" fill="black"/>
<path opacity="0.4" fill-rule="evenodd" clip-rule="evenodd" d="M396.1 38H412.47C413.391 38 414.137 38.7462 414.137 39.6667V46.3333C414.137 47.2538 413.391 48 412.47 48H396.1C395.18 48 394.434 47.2538 394.434 46.3333V39.6667C394.434 38.7462 395.18 38 396.1 38ZM393.434 39.6667C393.434 38.1939 394.628 37 396.1 37H412.47C413.943 37 415.137 38.1939 415.137 39.6667V46.3333C415.137 47.8061 413.943 49 412.47 49H396.1C394.627 49 393.434 47.8061 393.434 46.3333V39.6667ZM417.434 43C417.434 43.9245 416.917 44.7589 416.123 45.1176V40.8824C416.917 41.2411 417.434 42.0755 417.434 43Z" fill="black"/>
<rect x="395.406" y="39.1172" width="17.7573" height="7.76471" rx="1.33333" fill="black"/>
<path d="M76.6484 38.0127V48H75.001V39.9678L72.5605 40.7949V39.4346L76.4502 38.0127H76.6484ZM86.7933 46.6875V48H80.1214V46.8721L83.3617 43.3379C83.7171 42.9368 83.9974 42.5905 84.2025 42.2988C84.4076 42.0072 84.5511 41.7451 84.6331 41.5127C84.7197 41.2757 84.763 41.0456 84.763 40.8223C84.763 40.5078 84.7038 40.2321 84.5853 39.9951C84.4714 39.7536 84.3027 39.5645 84.0794 39.4277C83.8561 39.2865 83.585 39.2158 83.266 39.2158C82.8968 39.2158 82.5869 39.2956 82.3363 39.4551C82.0856 39.6146 81.8965 39.8356 81.7689 40.1182C81.6413 40.3962 81.5775 40.7152 81.5775 41.0752H79.93C79.93 40.4964 80.0622 39.9678 80.3265 39.4893C80.5908 39.0062 80.9736 38.6234 81.4749 38.3408C81.9762 38.0537 82.5801 37.9102 83.2865 37.9102C83.9518 37.9102 84.5169 38.0218 84.9818 38.2451C85.4466 38.4684 85.7998 38.7852 86.0413 39.1953C86.2874 39.6055 86.4105 40.0908 86.4105 40.6514C86.4105 40.9613 86.3604 41.2689 86.2601 41.5742C86.1598 41.8796 86.0163 42.1849 85.8294 42.4902C85.6471 42.791 85.4307 43.0941 85.18 43.3994C84.9294 43.7002 84.6536 44.0055 84.3529 44.3154L82.1995 46.6875H86.7933ZM88.2087 47.1797C88.2087 46.9245 88.2953 46.7103 88.4684 46.5371C88.6416 46.3594 88.8763 46.2705 89.1725 46.2705C89.4733 46.2705 89.708 46.3594 89.8766 46.5371C90.0498 46.7103 90.1364 46.9245 90.1364 47.1797C90.1364 47.4349 90.0498 47.6491 89.8766 47.8223C89.708 47.9954 89.4733 48.082 89.1725 48.082C88.8763 48.082 88.6416 47.9954 88.4684 47.8223C88.2953 47.6491 88.2087 47.4349 88.2087 47.1797ZM88.2155 41.3555C88.2155 41.1003 88.3021 40.8861 88.4753 40.7129C88.6484 40.5352 88.8831 40.4463 89.1794 40.4463C89.4801 40.4463 89.7148 40.5352 89.8835 40.7129C90.0566 40.8861 90.1432 41.1003 90.1432 41.3555C90.1432 41.6107 90.0566 41.8249 89.8835 41.998C89.7148 42.1712 89.4801 42.2578 89.1794 42.2578C88.8831 42.2578 88.6484 42.1712 88.4753 41.998C88.3021 41.8249 88.2155 41.6107 88.2155 41.3555ZM93.7324 42.2783H94.7168C95.0996 42.2783 95.4163 42.2122 95.667 42.0801C95.9222 41.9479 96.1113 41.7656 96.2344 41.5332C96.3574 41.3008 96.419 41.0342 96.419 40.7334C96.419 40.4189 96.362 40.1501 96.2481 39.9268C96.1387 39.6989 95.9701 39.5234 95.7422 39.4004C95.5189 39.2773 95.2341 39.2158 94.8877 39.2158C94.596 39.2158 94.3317 39.2751 94.0947 39.3936C93.8623 39.5075 93.6777 39.6715 93.541 39.8857C93.4043 40.0954 93.3359 40.346 93.3359 40.6377H91.6816C91.6816 40.109 91.8206 39.6396 92.0986 39.2295C92.3766 38.8193 92.7549 38.498 93.2334 38.2656C93.7165 38.0286 94.2588 37.9102 94.8604 37.9102C95.5029 37.9102 96.0635 38.0173 96.542 38.2314C97.0251 38.4411 97.401 38.7555 97.6699 39.1748C97.9388 39.5941 98.0732 40.1136 98.0732 40.7334C98.0732 41.016 98.0072 41.3031 97.875 41.5947C97.7428 41.8864 97.5469 42.153 97.2871 42.3945C97.0274 42.6315 96.7038 42.8252 96.3164 42.9756C95.929 43.1214 95.4802 43.1943 94.9697 43.1943H93.7324V42.2783ZM93.7324 43.5635V42.6611H94.9697C95.5531 42.6611 96.0498 42.7295 96.46 42.8662C96.8747 43.0029 97.2119 43.1921 97.4717 43.4336C97.7315 43.6706 97.9206 43.9417 98.0391 44.2471C98.1621 44.5524 98.2236 44.876 98.2236 45.2178C98.2236 45.6826 98.1393 46.0973 97.9707 46.4619C97.8066 46.8219 97.5719 47.1273 97.2666 47.3779C96.9613 47.6286 96.6035 47.8177 96.1934 47.9453C95.7878 48.0729 95.3457 48.1367 94.8672 48.1367C94.4388 48.1367 94.0287 48.0775 93.6367 47.959C93.2448 47.8405 92.8939 47.665 92.584 47.4326C92.2741 47.1956 92.028 46.9017 91.8457 46.5508C91.668 46.1953 91.5791 45.7852 91.5791 45.3203H93.2266C93.2266 45.6165 93.2949 45.8786 93.4316 46.1064C93.5729 46.3298 93.7689 46.5052 94.0195 46.6328C94.2747 46.7604 94.5664 46.8242 94.8945 46.8242C95.2409 46.8242 95.5394 46.7627 95.79 46.6396C96.0407 46.5166 96.2321 46.3343 96.3643 46.0928C96.501 45.8512 96.5693 45.5596 96.5693 45.2178C96.5693 44.8304 96.4941 44.516 96.3438 44.2744C96.1934 44.0329 95.9792 43.8551 95.7012 43.7412C95.4232 43.6227 95.0951 43.5635 94.7168 43.5635H93.7324ZM106.256 42.1895V43.8164C106.256 44.5957 106.179 45.2611 106.024 45.8125C105.873 46.3594 105.655 46.8037 105.368 47.1455C105.08 47.4873 104.736 47.738 104.335 47.8975C103.939 48.057 103.494 48.1367 103.002 48.1367C102.61 48.1367 102.246 48.0866 101.909 47.9863C101.576 47.8861 101.275 47.7288 101.006 47.5146C100.737 47.3005 100.507 47.0247 100.316 46.6875C100.129 46.3457 99.9831 45.9378 99.8783 45.4639C99.778 44.9899 99.7279 44.4408 99.7279 43.8164V42.1895C99.7279 41.4056 99.8053 40.7448 99.9603 40.207C100.115 39.6647 100.336 39.2249 100.623 38.8877C100.91 38.5459 101.252 38.2975 101.649 38.1426C102.05 37.9876 102.496 37.9102 102.989 37.9102C103.385 37.9102 103.75 37.9603 104.082 38.0605C104.42 38.1562 104.72 38.3089 104.985 38.5186C105.254 38.7282 105.481 39.0016 105.668 39.3389C105.86 39.6715 106.006 40.0749 106.106 40.5488C106.206 41.0182 106.256 41.5651 106.256 42.1895ZM104.609 44.0488V41.9434C104.609 41.5469 104.586 41.1982 104.54 40.8975C104.495 40.5921 104.426 40.3346 104.335 40.125C104.249 39.9108 104.139 39.7376 104.007 39.6055C103.875 39.4688 103.725 39.3708 103.556 39.3115C103.387 39.2477 103.198 39.2158 102.989 39.2158C102.733 39.2158 102.506 39.266 102.305 39.3662C102.105 39.4619 101.936 39.6169 101.799 39.8311C101.662 40.0452 101.558 40.3278 101.485 40.6787C101.416 41.0251 101.382 41.4466 101.382 41.9434V44.0488C101.382 44.4499 101.405 44.8031 101.451 45.1084C101.496 45.4137 101.564 45.6758 101.656 45.8945C101.747 46.1087 101.856 46.2865 101.984 46.4277C102.116 46.5645 102.266 46.6647 102.435 46.7285C102.608 46.7923 102.797 46.8242 103.002 46.8242C103.262 46.8242 103.492 46.7741 103.693 46.6738C103.893 46.5736 104.062 46.4141 104.199 46.1953C104.335 45.972 104.438 45.6826 104.506 45.3271C104.575 44.9717 104.609 44.5456 104.609 44.0488Z" fill="black"/>
<path d="M91 81L81 91" stroke="black" stroke-width="2" stroke-linecap="round" stroke-linejoin="round"/>
<path d="M81 91L91 101" stroke="black" stroke-width="2" stroke-linecap="round" stroke-linejoin="round"/>
<path d="M94.5078 125.043V138.012H92.0273V131.645H89.1172V129.633H92.0273V125.043H94.5078ZM94.9375 140.492V142.484H82.7109V136.879H85.2109V140.492H94.9375ZM86.2461 128.52C86.2461 130.57 87.4961 132.777 90.3281 133.695L89.0977 135.668C87.125 135.033 85.7773 133.734 84.9961 132.113C84.2148 133.91 82.7988 135.336 80.6992 136.039L79.4297 134.008C82.3594 133.09 83.6875 130.766 83.707 128.5V128.227H80.1328V126.234H89.7812V128.227H86.2461V128.52ZM103.727 129.047C103.727 132.309 105.211 135.59 108.219 136.859L106.754 138.852C104.723 137.934 103.316 136.166 102.516 133.969C101.705 136.361 100.25 138.295 98.082 139.281L96.5781 137.211C99.6836 135.902 101.188 132.504 101.207 129.047V126.391H103.727V129.047ZM111.695 125.023V142.836H109.176V125.023H111.695ZM129.039 125.023V142.797H126.559V125.023H129.039ZM114.176 137.777C115.533 137.768 117.086 137.768 118.707 137.719V136.215C116.754 135.873 115.484 134.662 115.504 132.992C115.484 131 117.301 129.652 119.918 129.652C122.555 129.652 124.391 131 124.391 132.992C124.391 134.652 123.121 135.863 121.168 136.215V137.641C122.652 137.572 124.156 137.455 125.582 137.27L125.758 139.105C121.871 139.77 117.672 139.809 114.508 139.809L114.176 137.777ZM125.328 126.996V128.949H114.527V126.996H118.707V125.102H121.188V126.996H125.328ZM119.918 131.547C118.707 131.547 117.848 132.074 117.867 132.992C117.848 133.93 118.707 134.438 119.918 134.438C121.168 134.438 122.008 133.93 122.008 132.992C122.008 132.074 121.168 131.547 119.918 131.547Z" fill="black"/>
<path d="M89.625 242.215V244.207H86.0898C86.1094 246.277 87.3496 248.279 90.1914 249.109L89 251.062C87.0371 250.467 85.6797 249.275 84.8984 247.742C84.1074 249.539 82.6621 250.965 80.5234 251.668L79.2539 249.695C82.2031 248.768 83.5312 246.463 83.5703 244.207H79.9375V242.215H89.625ZM93.6289 241.023V245.145H96.0312V247.176H93.6289V251.57H91.1289V241.023H93.6289ZM87.8086 251.922C91.5 251.902 93.8047 253.172 93.8047 255.34C93.8047 257.508 91.5 258.797 87.8086 258.797C84.0391 258.797 81.7148 257.508 81.7148 255.34C81.7148 253.172 84.0391 251.902 87.8086 251.922ZM87.8086 253.855C85.4648 253.855 84.1953 254.344 84.2148 255.34C84.1953 256.355 85.4648 256.863 87.8086 256.863C90.1133 256.863 91.3438 256.355 91.3438 255.34C91.3438 254.344 90.1133 253.855 87.8086 253.855ZM113.082 254.676V256.668H96.8125V254.676H103.609V250.652H106.09V254.676H113.082ZM106.168 243.309C106.168 245.848 108.453 248.523 112.516 249.148L111.461 251.219C108.336 250.652 106.012 248.982 104.84 246.766C103.668 248.973 101.363 250.662 98.2578 251.219L97.2031 249.148C101.227 248.523 103.492 245.828 103.512 243.309V242.039H106.168V243.309Z" fill="black"/>
<path d="M93.6289 357.023V360.344H96.0312V362.395H93.6289V365.812H91.1289V357.023H93.6289ZM82.75 357.805V363.254C84.8887 363.225 87.1934 363.029 89.6445 362.551L89.9375 364.582C87.0078 365.168 84.293 365.324 81.7734 365.305H80.25V357.805H82.75ZM93.6289 366.535V371.438H84.3516V372.609H94.1367V374.602H81.8711V369.562H91.1094V368.488H81.832V366.535H93.6289ZM111.422 357.023V363.723H113.414V365.793H111.422V374.797H108.922V369.27L107.398 371.027C106.256 370.129 105.562 368.781 105.152 367.219C104.684 368.83 103.922 370.246 102.652 371.164C101.412 370.256 100.66 368.85 100.211 367.238C99.7812 368.801 99.0879 370.139 97.9453 371.027L96.3828 369.211C98.6289 367.551 98.9609 364.406 98.9805 361.477V360.559H97.0859V358.566H102.359V360.559H101.324V361.477C101.324 363.566 101.5 366.018 102.672 367.863C103.814 366.027 104.02 363.596 104.02 361.477V360.559H102.984V358.566H107.984V360.559H106.402V361.477C106.383 364.416 106.725 367.512 108.922 369.172V357.023H111.422Z" fill="black"/>
<rect x="79.5" y="162.5" width="319" height="43" rx="4.5" stroke="black"/>
<rect x="79.5" y="278.5" width="319" height="43" rx="4.5" stroke="black"/>
<rect x="79.5" y="394.5" width="319" height="43" rx="4.5" stroke="black"/>
<path d="M114 193L109.174 188.174M109.174 188.174C110.783 186.566 111.778 184.343 111.778 181.889C111.778 176.98 107.798 173 102.889 173C97.9797 173 94 176.98 94 181.889C94 186.798 97.9797 190.778 102.889 190.778C105.343 190.778 107.566 189.783 109.174 188.174Z" stroke="black" stroke-width="2" stroke-linecap="round" stroke-linejoin="round"/>
<path d="M136.336 299.49V300.393H132.562V303.633H137.621V304.521H126.492V303.633H131.496V300.393H127.859V294.992H128.953V299.49H136.336ZM149.68 299.066V299.928H138.592V299.066H149.68ZM139.932 301.855V301.021H148.244V303.838H141.025V305.096H148.613V305.971H139.959V303.031H147.191V301.855H139.932ZM140.068 298.068V294.377H148.23V295.238H141.148V297.193H148.354V298.068H140.068ZM160.768 293.953V300.967H159.688V297.248H156.98V296.359H159.688V293.953H160.768ZM150.691 299.764C152.537 299.142 153.768 297.583 153.781 295.771V294.486H154.834V295.812C154.82 297.419 156.078 298.916 157.842 299.504L157.281 300.365C155.921 299.866 154.848 298.875 154.314 297.631C153.795 299.019 152.701 300.092 151.266 300.625L150.691 299.764ZM152.824 305.943V301.582H160.768V305.943H152.824ZM153.891 305.068H159.715V302.443H153.891V305.068ZM176.627 293.967V300.215H175.602V297.604H173.947V300.119H172.922V294.199H173.947V296.729H175.602V293.967H176.627ZM166.428 299.777C168.896 298.916 170.283 297.48 170.488 295.594H166.906V294.705H171.609C171.616 297.494 169.969 299.47 166.934 300.584L166.428 299.777ZM168.561 301.623V300.748H176.627V303.674H169.654V305.082H177.119V305.943H168.588V302.84H175.574V301.623H168.561ZM188.467 293.953V306.135H187.4V299.531H185.035V298.629H187.4V293.953H188.467ZM178.828 295.977V295.088H184.297V299.34H179.936V302.293C182.034 302.293 183.552 302.225 185.322 301.896L185.404 302.799C183.579 303.127 182 303.202 179.799 303.209H178.869V298.451H183.258V295.977H178.828ZM200.539 293.953V306.135H199.473V293.953H200.539ZM191.188 295.977V295.088H196.848V299.408H192.309V302.279C194.325 302.286 196.123 302.19 198.297 301.842L198.406 302.744C196.171 303.093 194.325 303.182 192.227 303.182H191.215V298.533H195.768V295.977H191.188ZM206.555 305L206.541 304.098L209.918 300.543C211.087 299.299 211.647 298.629 211.654 297.713C211.647 296.694 210.8 296.038 209.686 296.031C208.503 296.038 207.765 296.783 207.758 297.891H206.596C206.582 296.141 207.936 294.965 209.727 294.965C211.524 294.965 212.796 296.175 212.803 297.713C212.796 298.82 212.283 299.682 210.533 301.486L208.264 303.824V303.906H212.98V305H206.555ZM214.307 302.977V301.965L218.764 295.102H220.281V301.896H221.662V302.977H220.281V305H219.105V302.977H214.307ZM215.633 301.896H219.105V296.66H218.982L215.633 301.814V301.896ZM227.322 297.918V302.061C228.409 302.013 229.496 301.938 230.494 301.814L230.59 302.594C228.081 302.99 225.224 303.065 223.125 303.072L222.975 302.143C223.952 302.143 225.094 302.136 226.27 302.102V297.918H227.322ZM231.096 306.121V294.186H232.162V299.066H234.035V299.969H232.162V306.121H231.096ZM244.549 302.266V303.141H236.783V296.906H237.85V302.266H244.549Z" fill="black"/>
<path d="M136.514 175.953V188.135H135.434V175.953H136.514ZM127.285 185.113V177.115H133.068V178.018H128.365V184.184C130.73 184.184 132.282 184.115 134.107 183.787L134.217 184.689C132.33 185.024 130.73 185.106 128.27 185.113H127.285ZM142.939 179.686C142.946 181.75 144.443 183.849 146.234 184.621L145.633 185.469C144.211 184.826 142.987 183.425 142.42 181.743C141.853 183.527 140.622 185.072 139.234 185.77L138.592 184.922C140.335 184.088 141.853 181.791 141.859 179.686V178.1H138.988V177.211H145.838V178.1H142.939V179.686ZM147.533 188.107V175.953H148.613V188.107H147.533ZM156.83 176.705V177.594H152.387V178.893H156.502V179.727H152.387V181.176C154.629 181.169 155.914 181.121 157.486 180.861L157.582 181.736C155.935 182.01 154.588 182.037 152.209 182.037H151.32V176.705H156.83ZM152.879 183.938V183.076H160.754V185.893H153.973V187.109H161.219V187.971H152.906V185.072H159.688V183.938H152.879ZM157.35 179.631V178.756H159.688V175.953H160.754V182.529H159.688V179.631H157.35ZM169.121 177.156V185.059H163.502V177.156H169.121ZM164.555 184.184H168.068V178.018H164.555V184.184ZM171.732 188.135V175.953H172.812V188.135H171.732ZM184.912 175.953V188.135H183.832V175.953H184.912ZM175.684 185.113V177.115H181.467V178.018H176.764V184.184C179.129 184.184 180.681 184.115 182.506 183.787L182.615 184.689C180.729 185.024 179.129 185.106 176.668 185.113H175.684ZM190.258 176.896C191.912 176.903 193.108 178.325 193.272 180.602H196V175.953H197.066V188.135H196V181.49H193.286C193.17 183.876 191.953 185.366 190.258 185.359C188.46 185.366 187.202 183.726 187.209 181.135C187.202 178.551 188.46 176.903 190.258 176.896ZM188.234 181.135C188.241 183.11 189.062 184.409 190.258 184.402C191.447 184.409 192.281 183.11 192.281 181.135C192.281 179.159 191.447 177.86 190.258 177.854C189.062 177.86 188.241 179.159 188.234 181.135ZM206.363 177.266V178.141H199.117V177.266H202.207V175.898H203.273V177.266H206.363ZM199.814 180.971C199.808 179.631 200.983 178.783 202.74 178.77C204.483 178.783 205.652 179.631 205.666 180.971C205.652 182.29 204.483 183.151 202.74 183.158C200.983 183.151 199.808 182.29 199.814 180.971ZM200.635 185.1V184.225H208.592V188.107H207.525V185.1H200.635ZM200.84 180.971C200.833 181.777 201.592 182.304 202.74 182.297C203.875 182.304 204.641 181.777 204.654 180.971C204.641 180.144 203.875 179.61 202.74 179.604C201.592 179.61 200.833 180.144 200.84 180.971ZM207.525 183.555V175.953H208.592V179.33H210.424V180.232H208.592V183.555H207.525ZM217.93 177.307V177.936C217.923 178.899 217.923 180.506 217.574 182.762L216.494 182.666C216.829 180.629 216.856 179.152 216.85 178.182H211.75V177.307H217.93ZM211.066 184.539C211.866 184.532 212.755 184.525 213.691 184.505V180.779H214.744V184.471C216.091 184.423 217.472 184.334 218.736 184.184L218.791 184.99C216.234 185.387 213.377 185.441 211.203 185.428L211.066 184.539ZM219.502 188.107V175.953H220.568V181.039H222.537V181.969H220.568V188.107H219.502ZM232.859 179.809V181.299H237.877V182.16H226.803V181.299H231.807V179.809H232.859ZM227.391 179.617C229.482 179.426 231.52 178.503 231.636 177.225H227.814V176.35H236.893V177.225H233.044C233.16 178.503 235.184 179.426 237.289 179.617L236.934 180.451C234.91 180.239 233.003 179.405 232.347 178.1C231.697 179.412 229.783 180.239 227.76 180.451L227.391 179.617ZM228.143 183.992V183.172H236.455V185.934H229.236V187.123H236.824V187.971H228.17V185.141H235.402V183.992H228.143ZM242.252 176.527C243.879 176.521 245.123 177.471 245.355 178.865H247.898V175.953H248.979V182.475H247.898V179.754H245.362C245.15 181.189 243.899 182.146 242.252 182.146C240.399 182.146 239.087 180.998 239.094 179.33C239.087 177.683 240.399 176.521 242.252 176.527ZM240.119 179.33C240.119 180.438 241.001 181.237 242.252 181.244C243.476 181.237 244.357 180.438 244.357 179.33C244.357 178.209 243.476 177.43 242.252 177.443C241.001 177.43 240.119 178.209 240.119 179.33ZM241.145 187.943V183.09H242.225V184.635H247.898V183.09H248.979V187.943H241.145ZM242.225 187.068H247.898V185.496H242.225V187.068ZM261.078 175.967V184.881H259.998V180.219H257.496V179.33H259.998V175.967H261.078ZM251.057 182.447C252.848 181.818 254.146 180.212 254.146 178.469V177.84H251.398V176.951H257.947V177.84H255.227V178.469C255.227 180.041 256.443 181.565 258.221 182.174L257.66 183.035C256.293 182.536 255.233 181.518 254.707 180.26C254.181 181.668 253.06 182.782 251.617 183.322L251.057 182.447ZM253.271 187.848V184.074H254.352V186.945H261.42V187.848H253.271ZM267.422 179.221C267.415 181.442 268.926 183.671 270.717 184.484L270.061 185.332C268.673 184.662 267.477 183.22 266.896 181.49C266.335 183.322 265.139 184.86 263.717 185.578L263.033 184.676C264.845 183.849 266.342 181.524 266.355 179.221V177.006H267.422V179.221ZM272.043 188.135V175.953H273.123V188.135H272.043ZM285.168 175.953V188.107H284.102V175.953H285.168ZM275.27 184.867C276.309 184.86 277.498 184.854 278.729 184.812V183.486C277.266 183.336 276.322 182.502 276.336 181.285C276.322 179.911 277.491 179.022 279.248 179.029C281.005 179.022 282.194 179.911 282.188 181.285C282.194 182.488 281.251 183.322 279.809 183.486V184.771C280.984 184.717 282.174 184.635 283.295 184.484L283.377 185.305C280.663 185.742 277.689 185.783 275.434 185.783L275.27 184.867ZM275.529 178.332V177.457H278.729V175.967H279.809V177.457H282.98V178.332H275.529ZM277.334 181.285C277.327 182.126 278.12 182.68 279.248 182.666C280.383 182.68 281.169 182.126 281.162 181.285C281.169 180.438 280.383 179.863 279.248 179.863C278.12 179.863 277.327 180.438 277.334 181.285Z" fill="black"/>
<path d="M126.93 420L126.916 419.098L130.293 415.543C131.462 414.299 132.022 413.629 132.029 412.713C132.022 411.694 131.175 411.038 130.061 411.031C128.878 411.038 128.14 411.783 128.133 412.891H126.971C126.957 411.141 128.311 409.965 130.102 409.965C131.899 409.965 133.171 411.175 133.178 412.713C133.171 413.82 132.658 414.682 130.908 416.486L128.639 418.824V418.906H133.355V420H126.93ZM138.387 420.137C136.192 420.137 134.921 418.291 134.928 415.051C134.921 411.838 136.206 409.965 138.387 409.965C140.561 409.965 141.846 411.838 141.846 415.051C141.846 418.291 140.581 420.137 138.387 420.137ZM136.117 415.051C136.124 417.614 136.951 419.043 138.387 419.043C139.815 419.043 140.649 417.614 140.643 415.051C140.649 412.487 139.809 411.038 138.387 411.031C136.965 411.038 136.124 412.487 136.117 415.051ZM143.486 420L143.473 419.098L146.85 415.543C148.019 414.299 148.579 413.629 148.586 412.713C148.579 411.694 147.731 411.038 146.617 411.031C145.435 411.038 144.696 411.783 144.689 412.891H143.527C143.514 411.141 144.867 409.965 146.658 409.965C148.456 409.965 149.728 411.175 149.734 412.713C149.728 413.82 149.215 414.682 147.465 416.486L145.195 418.824V418.906H149.912V420H143.486ZM151.238 417.977V416.965L155.695 410.102H157.213V416.896H158.594V417.977H157.213V420H156.037V417.977H151.238ZM152.564 416.896H156.037V411.66H155.914L152.564 416.814V416.896ZM160.617 420.082C160.139 420.075 159.729 419.679 159.742 419.193C159.729 418.715 160.139 418.318 160.617 418.318C161.103 418.318 161.499 418.715 161.492 419.193C161.499 419.679 161.103 420.075 160.617 420.082ZM165.635 410.102V420H164.391V411.387H164.336L161.93 412.986V411.742L164.391 410.102H165.635ZM168.273 420L168.26 419.098L171.637 415.543C172.806 414.299 173.366 413.629 173.373 412.713C173.366 411.694 172.519 411.038 171.404 411.031C170.222 411.038 169.483 411.783 169.477 412.891H168.314C168.301 411.141 169.654 409.965 171.445 409.965C173.243 409.965 174.515 411.175 174.521 412.713C174.515 413.82 174.002 414.682 172.252 416.486L169.982 418.824V418.906H174.699V420H168.273ZM177.338 420.082C176.859 420.075 176.449 419.679 176.463 419.193C176.449 418.715 176.859 418.318 177.338 418.318C177.823 418.318 178.22 418.715 178.213 419.193C178.22 419.679 177.823 420.075 177.338 420.082ZM182.355 410.102V420H181.111V411.387H181.057L178.65 412.986V411.742L181.111 410.102H182.355ZM184.994 420L184.98 419.098L188.357 415.543C189.526 414.299 190.087 413.629 190.094 412.713C190.087 411.694 189.239 411.038 188.125 411.031C186.942 411.038 186.204 411.783 186.197 412.891H185.035C185.021 411.141 186.375 409.965 188.166 409.965C189.964 409.965 191.235 411.175 191.242 412.713C191.235 413.82 190.723 414.682 188.973 416.486L186.703 418.824V418.906H191.42V420H184.994Z" fill="black"/>
<path d="M93 407.176H111.824V423.999C111.824 425.104 110.928 425.999 109.824 425.999H95C93.8954 425.999 93 425.104 93 423.999V407.176Z" stroke="black" stroke-width="2" stroke-linecap="round" stroke-linejoin="round"/>
<path d="M93 411.883H111.824" stroke="black" stroke-width="2" stroke-linecap="round" stroke-linejoin="round"/>
<path d="M107.117 406V408.353" stroke="black" stroke-width="2" stroke-linecap="round" stroke-linejoin="round"/>
<path d="M97.707 406V408.353" stroke="black" stroke-width="2" stroke-linecap="round" stroke-linejoin="round"/>
<rect x="110" y="310" width="0.01" height="0.01" stroke="black" stroke-width="3" stroke-linejoin="round"/>
<path d="M98.3431 292.657L97.6569 293.343C94.5327 296.467 94.5327 301.533 97.6569 304.657L104 311L110.343 304.657C113.467 301.533 113.467 296.467 110.343 293.343L109.657 292.657C106.533 289.533 101.467 289.533 98.3431 292.657Z" stroke="black" stroke-width="2" stroke-linejoin="round"/>
<rect x="255.5" y="757.5" width="149" height="43" rx="14.5" fill="black" stroke="black"/>
<mask id="path-29-outside-1_2020_10495" maskUnits="userSpaceOnUse" x="301" y="771" width="57" height="16" fill="black">
<rect fill="white" x="301" y="771" width="57" height="16"/>
<path d="M311.912 772.436H313.074V785.092H311.912V772.436ZM308.202 773.794H309.35C309.35 777.462 307.698 780.668 303.47 782.74L302.854 781.802C306.508 780.038 308.202 777.35 308.202 773.99V773.794ZM303.428 773.794H308.706V774.746H303.428V773.794ZM315.565 779.394H327.045V780.346H315.565V779.394ZM317.021 772.758H325.561V775.824H318.197V777.532H317.049V774.97H324.427V773.668H317.021V772.758ZM317.049 777.154H325.841V778.064H317.049V777.154ZM320.717 777.63H321.879V779.87H320.717V777.63ZM316.839 781.312H325.645V784.98H324.483V782.264H316.839V781.312ZM335.727 773.528H336.679V775.796C336.679 778.708 335.111 781.41 333.039 782.46L332.325 781.508C334.201 780.612 335.727 778.19 335.727 775.796V773.528ZM335.923 773.528H336.875V775.796C336.875 778.106 338.387 780.43 340.263 781.298L339.563 782.222C337.505 781.214 335.923 778.61 335.923 775.796V773.528ZM341.579 772.422H342.741V785.106H341.579V772.422ZM348.382 773.738H349.334V774.76C349.334 777.084 347.934 779.016 345.82 779.772L345.204 778.862C347.122 778.19 348.382 776.566 348.382 774.76V773.738ZM348.592 773.738H349.544V774.746C349.544 776.426 350.762 777.98 352.624 778.61L352.022 779.52C349.936 778.792 348.592 776.93 348.592 774.746V773.738ZM345.568 773.318H352.33V774.27H345.568V773.318ZM353.926 772.436H355.088V780.052H353.926V772.436ZM354.766 775.768H356.964V776.734H354.766V775.768ZM346.87 780.724H355.088V785.092H353.926V781.69H346.87V780.724Z"/>
</mask>
<path d="M311.912 772.436H313.074V785.092H311.912V772.436ZM308.202 773.794H309.35C309.35 777.462 307.698 780.668 303.47 782.74L302.854 781.802C306.508 780.038 308.202 777.35 308.202 773.99V773.794ZM303.428 773.794H308.706V774.746H303.428V773.794ZM315.565 779.394H327.045V780.346H315.565V779.394ZM317.021 772.758H325.561V775.824H318.197V777.532H317.049V774.97H324.427V773.668H317.021V772.758ZM317.049 777.154H325.841V778.064H317.049V777.154ZM320.717 777.63H321.879V779.87H320.717V777.63ZM316.839 781.312H325.645V784.98H324.483V782.264H316.839V781.312ZM335.727 773.528H336.679V775.796C336.679 778.708 335.111 781.41 333.039 782.46L332.325 781.508C334.201 780.612 335.727 778.19 335.727 775.796V773.528ZM335.923 773.528H336.875V775.796C336.875 778.106 338.387 780.43 340.263 781.298L339.563 782.222C337.505 781.214 335.923 778.61 335.923 775.796V773.528ZM341.579 772.422H342.741V785.106H341.579V772.422ZM348.382 773.738H349.334V774.76C349.334 777.084 347.934 779.016 345.82 779.772L345.204 778.862C347.122 778.19 348.382 776.566 348.382 774.76V773.738ZM348.592 773.738H349.544V774.746C349.544 776.426 350.762 777.98 352.624 778.61L352.022 779.52C349.936 778.792 348.592 776.93 348.592 774.746V773.738ZM345.568 773.318H352.33V774.27H345.568V773.318ZM353.926 772.436H355.088V780.052H353.926V772.436ZM354.766 775.768H356.964V776.734H354.766V775.768ZM346.87 780.724H355.088V785.092H353.926V781.69H346.87V780.724Z" fill="white"/>
<path d="M311.912 772.436V771.436H310.912V772.436H311.912ZM313.074 772.436H314.074V771.436H313.074V772.436ZM313.074 785.092V786.092H314.074V785.092H313.074ZM311.912 785.092H310.912V786.092H311.912V785.092ZM308.202 773.794V772.794H307.202V773.794H308.202ZM309.35 773.794H310.35V772.794H309.35V773.794ZM303.47 782.74L302.634 783.289L303.118 784.026L303.91 783.638L303.47 782.74ZM302.854 781.802L302.419 780.901L301.392 781.397L302.018 782.351L302.854 781.802ZM303.428 773.794V772.794H302.428V773.794H303.428ZM308.706 773.794H309.706V772.794H308.706V773.794ZM308.706 774.746V775.746H309.706V774.746H308.706ZM303.428 774.746H302.428V775.746H303.428V774.746ZM311.912 773.436H313.074V771.436H311.912V773.436ZM312.074 772.436V785.092H314.074V772.436H312.074ZM313.074 784.092H311.912V786.092H313.074V784.092ZM312.912 785.092V772.436H310.912V785.092H312.912ZM308.202 774.794H309.35V772.794H308.202V774.794ZM308.35 773.794C308.35 775.475 307.973 777.004 307.146 778.339C306.318 779.673 305.003 780.875 303.03 781.842L303.91 783.638C306.165 782.533 307.79 781.096 308.845 779.392C309.901 777.689 310.35 775.781 310.35 773.794H308.35ZM304.306 782.191L303.69 781.253L302.018 782.351L302.634 783.289L304.306 782.191ZM303.289 782.703C305.24 781.76 306.73 780.541 307.729 779.051C308.731 777.556 309.202 775.846 309.202 773.99H307.202C307.202 775.494 306.826 776.808 306.068 777.938C305.306 779.073 304.122 780.08 302.419 780.901L303.289 782.703ZM309.202 773.99V773.794H307.202V773.99H309.202ZM303.428 774.794H308.706V772.794H303.428V774.794ZM307.706 773.794V774.746H309.706V773.794H307.706ZM308.706 773.746H303.428V775.746H308.706V773.746ZM304.428 774.746V773.794H302.428V774.746H304.428ZM315.565 779.394V778.394H314.565V779.394H315.565ZM327.045 779.394H328.045V778.394H327.045V779.394ZM327.045 780.346V781.346H328.045V780.346H327.045ZM315.565 780.346H314.565V781.346H315.565V780.346ZM317.021 772.758V771.758H316.021V772.758H317.021ZM325.561 772.758H326.561V771.758H325.561V772.758ZM325.561 775.824V776.824H326.561V775.824H325.561ZM318.197 775.824V774.824H317.197V775.824H318.197ZM318.197 777.532V778.532H319.197V777.532H318.197ZM317.049 777.532H316.049V778.532H317.049V777.532ZM317.049 774.97V773.97H316.049V774.97H317.049ZM324.427 774.97V775.97H325.427V774.97H324.427ZM324.427 773.668H325.427V772.668H324.427V773.668ZM317.021 773.668H316.021V774.668H317.021V773.668ZM317.049 777.154V776.154H316.049V777.154H317.049ZM325.841 777.154H326.841V776.154H325.841V777.154ZM325.841 778.064V779.064H326.841V778.064H325.841ZM317.049 778.064H316.049V779.064H317.049V778.064ZM320.717 777.63V776.63H319.717V777.63H320.717ZM321.879 777.63H322.879V776.63H321.879V777.63ZM321.879 779.87V780.87H322.879V779.87H321.879ZM320.717 779.87H319.717V780.87H320.717V779.87ZM316.839 781.312V780.312H315.839V781.312H316.839ZM325.645 781.312H326.645V780.312H325.645V781.312ZM325.645 784.98V785.98H326.645V784.98H325.645ZM324.483 784.98H323.483V785.98H324.483V784.98ZM324.483 782.264H325.483V781.264H324.483V782.264ZM316.839 782.264H315.839V783.264H316.839V782.264ZM315.565 780.394H327.045V778.394H315.565V780.394ZM326.045 779.394V780.346H328.045V779.394H326.045ZM327.045 779.346H315.565V781.346H327.045V779.346ZM316.565 780.346V779.394H314.565V780.346H316.565ZM317.021 773.758H325.561V771.758H317.021V773.758ZM324.561 772.758V775.824H326.561V772.758H324.561ZM325.561 774.824H318.197V776.824H325.561V774.824ZM317.197 775.824V777.532H319.197V775.824H317.197ZM318.197 776.532H317.049V778.532H318.197V776.532ZM318.049 777.532V774.97H316.049V777.532H318.049ZM317.049 775.97H324.427V773.97H317.049V775.97ZM325.427 774.97V773.668H323.427V774.97H325.427ZM324.427 772.668H317.021V774.668H324.427V772.668ZM318.021 773.668V772.758H316.021V773.668H318.021ZM317.049 778.154H325.841V776.154H317.049V778.154ZM324.841 777.154V778.064H326.841V777.154H324.841ZM325.841 777.064H317.049V779.064H325.841V777.064ZM318.049 778.064V777.154H316.049V778.064H318.049ZM320.717 778.63H321.879V776.63H320.717V778.63ZM320.879 777.63V779.87H322.879V777.63H320.879ZM321.879 778.87H320.717V780.87H321.879V778.87ZM321.717 779.87V777.63H319.717V779.87H321.717ZM316.839 782.312H325.645V780.312H316.839V782.312ZM324.645 781.312V784.98H326.645V781.312H324.645ZM325.645 783.98H324.483V785.98H325.645V783.98ZM325.483 784.98V782.264H323.483V784.98H325.483ZM324.483 781.264H316.839V783.264H324.483V781.264ZM317.839 782.264V781.312H315.839V782.264H317.839ZM335.727 773.528V772.528H334.727V773.528H335.727ZM336.679 773.528H337.679V772.528H336.679V773.528ZM333.039 782.46L332.239 783.06L332.743 783.731L333.491 783.352L333.039 782.46ZM332.325 781.508L331.894 780.606L330.793 781.132L331.525 782.108L332.325 781.508ZM335.923 773.528V772.528H334.923V773.528H335.923ZM336.875 773.528H337.875V772.528H336.875V773.528ZM340.263 781.298L341.06 781.902L341.81 780.912L340.683 780.39L340.263 781.298ZM339.563 782.222L339.123 783.12L339.863 783.482L340.36 782.826L339.563 782.222ZM341.579 772.422V771.422H340.579V772.422H341.579ZM342.741 772.422H343.741V771.422H342.741V772.422ZM342.741 785.106V786.106H343.741V785.106H342.741ZM341.579 785.106H340.579V786.106H341.579V785.106ZM335.727 774.528H336.679V772.528H335.727V774.528ZM335.679 773.528V775.796H337.679V773.528H335.679ZM335.679 775.796C335.679 778.401 334.265 780.718 332.587 781.568L333.491 783.352C335.958 782.102 337.679 779.015 337.679 775.796H335.679ZM333.839 781.86L333.125 780.908L331.525 782.108L332.239 783.06L333.839 781.86ZM332.756 782.41C335.005 781.336 336.727 778.547 336.727 775.796H334.727C334.727 777.833 333.398 779.888 331.894 780.606L332.756 782.41ZM336.727 775.796V773.528H334.727V775.796H336.727ZM335.923 774.528H336.875V772.528H335.923V774.528ZM335.875 773.528V775.796H337.875V773.528H335.875ZM335.875 775.796C335.875 778.481 337.6 781.168 339.843 782.206L340.683 780.39C339.174 779.692 337.875 777.731 337.875 775.796H335.875ZM339.466 780.694L338.766 781.618L340.36 782.826L341.06 781.902L339.466 780.694ZM340.003 781.324C338.334 780.506 336.923 778.282 336.923 775.796H334.923C334.923 778.938 336.677 781.922 339.123 783.12L340.003 781.324ZM336.923 775.796V773.528H334.923V775.796H336.923ZM341.579 773.422H342.741V771.422H341.579V773.422ZM341.741 772.422V785.106H343.741V772.422H341.741ZM342.741 784.106H341.579V786.106H342.741V784.106ZM342.579 785.106V772.422H340.579V785.106H342.579ZM348.382 773.738V772.738H347.382V773.738H348.382ZM349.334 773.738H350.334V772.738H349.334V773.738ZM345.82 779.772L344.992 780.333L345.427 780.975L346.157 780.714L345.82 779.772ZM345.204 778.862L344.874 777.918L343.648 778.348L344.376 779.423L345.204 778.862ZM348.592 773.738V772.738H347.592V773.738H348.592ZM349.544 773.738H350.544V772.738H349.544V773.738ZM352.624 778.61L353.458 779.162L354.175 778.079L352.945 777.663L352.624 778.61ZM352.022 779.52L351.693 780.464L352.427 780.72L352.856 780.072L352.022 779.52ZM345.568 773.318V772.318H344.568V773.318H345.568ZM352.33 773.318H353.33V772.318H352.33V773.318ZM352.33 774.27V775.27H353.33V774.27H352.33ZM345.568 774.27H344.568V775.27H345.568V774.27ZM353.926 772.436V771.436H352.926V772.436H353.926ZM355.088 772.436H356.088V771.436H355.088V772.436ZM355.088 780.052V781.052H356.088V780.052H355.088ZM353.926 780.052H352.926V781.052H353.926V780.052ZM354.766 775.768V774.768H353.766V775.768H354.766ZM356.964 775.768H357.964V774.768H356.964V775.768ZM356.964 776.734V777.734H357.964V776.734H356.964ZM354.766 776.734H353.766V777.734H354.766V776.734ZM346.87 780.724V779.724H345.87V780.724H346.87ZM355.088 780.724H356.088V779.724H355.088V780.724ZM355.088 785.092V786.092H356.088V785.092H355.088ZM353.926 785.092H352.926V786.092H353.926V785.092ZM353.926 781.69H354.926V780.69H353.926V781.69ZM346.87 781.69H345.87V782.69H346.87V781.69ZM348.382 774.738H349.334V772.738H348.382V774.738ZM348.334 773.738V774.76H350.334V773.738H348.334ZM348.334 774.76C348.334 776.658 347.203 778.215 345.483 778.83L346.157 780.714C348.665 779.817 350.334 777.51 350.334 774.76H348.334ZM346.648 779.211L346.032 778.301L344.376 779.423L344.992 780.333L346.648 779.211ZM345.535 779.806C347.786 779.017 349.382 777.058 349.382 774.76H347.382C347.382 776.074 346.458 777.363 344.874 777.918L345.535 779.806ZM349.382 774.76V773.738H347.382V774.76H349.382ZM348.592 774.738H349.544V772.738H348.592V774.738ZM348.544 773.738V774.746H350.544V773.738H348.544ZM348.544 774.746C348.544 776.931 350.113 778.816 352.304 779.557L352.945 777.663C351.411 777.144 350.544 775.921 350.544 774.746H348.544ZM351.79 778.058L351.188 778.968L352.856 780.072L353.458 779.162L351.79 778.058ZM352.352 778.576C350.658 777.985 349.592 776.495 349.592 774.746H347.592C347.592 777.365 349.215 779.599 351.693 780.464L352.352 778.576ZM349.592 774.746V773.738H347.592V774.746H349.592ZM345.568 774.318H352.33V772.318H345.568V774.318ZM351.33 773.318V774.27H353.33V773.318H351.33ZM352.33 773.27H345.568V775.27H352.33V773.27ZM346.568 774.27V773.318H344.568V774.27H346.568ZM353.926 773.436H355.088V771.436H353.926V773.436ZM354.088 772.436V780.052H356.088V772.436H354.088ZM355.088 779.052H353.926V781.052H355.088V779.052ZM354.926 780.052V772.436H352.926V780.052H354.926ZM354.766 776.768H356.964V774.768H354.766V776.768ZM355.964 775.768V776.734H357.964V775.768H355.964ZM356.964 775.734H354.766V777.734H356.964V775.734ZM355.766 776.734V775.768H353.766V776.734H355.766ZM346.87 781.724H355.088V779.724H346.87V781.724ZM354.088 780.724V785.092H356.088V780.724H354.088ZM355.088 784.092H353.926V786.092H355.088V784.092ZM354.926 785.092V781.69H352.926V785.092H354.926ZM353.926 780.69H346.87V782.69H353.926V780.69ZM347.87 781.69V780.724H345.87V781.69H347.87Z" fill="black" mask="url(#path-29-outside-1_2020_10495)"/>
<circle cx="378" cy="299" r="9" stroke="#828282" stroke-width="2" stroke-linecap="round" stroke-linejoin="round"/>
<path d="M374.332 295.336L381.665 302.669" stroke="#828282" stroke-width="2" stroke-linecap="round" stroke-linejoin="round"/>
<path d="M381.668 295.336L374.335 302.669" stroke="#828282" stroke-width="2" stroke-linecap="round" stroke-linejoin="round"/>
<circle cx="378" cy="183" r="9" stroke="#828282" stroke-width="2" stroke-linecap="round" stroke-linejoin="round"/>
<path d="M374.332 179.336L381.665 186.669" stroke="#828282" stroke-width="2" stroke-linecap="round" stroke-linejoin="round"/>
<path d="M381.668 179.336L374.335 186.669" stroke="#828282" stroke-width="2" stroke-linecap="round" stroke-linejoin="round"/>
<circle cx="378" cy="416" r="9" stroke="#828282" stroke-width="2" stroke-linecap="round" stroke-linejoin="round"/>
<path d="M374.332 412.336L381.665 419.669" stroke="#828282" stroke-width="2" stroke-linecap="round" stroke-linejoin="round"/>
<path d="M381.668 412.336L374.335 419.669" stroke="#828282" stroke-width="2" stroke-linecap="round" stroke-linejoin="round"/>
</g>
<path fill-rule="evenodd" clip-rule="evenodd" d="M44.0898 48.7508C44.0898 30.6868 58.7336 16.043 76.7977 16.043H413.205C431.269 16.043 445.913 30.6868 445.913 48.7508V820.466C445.913 838.53 431.269 853.174 413.205 853.174H76.7977C58.7337 853.174 44.0898 838.53 44.0898 820.466V48.7508ZM59.3106 56.7028C59.3106 42.653 70.7002 31.2634 84.75 31.2634H144.546V48.9849C144.546 56.0098 150.241 61.7046 157.266 61.7046H332.738C339.763 61.7046 345.457 56.0098 345.457 48.9849V31.2634H405.253C419.303 31.2634 430.692 42.653 430.692 56.7028V812.514C430.692 826.564 419.303 837.953 405.253 837.953H84.75C70.7002 837.953 59.3106 826.564 59.3106 812.514V56.7028Z" fill="#ECEDEF"/>
<path d="M214.559 40.3996C214.559 38.7184 215.921 37.3555 217.603 37.3555H272.397C274.078 37.3555 275.441 38.7184 275.441 40.3996C275.441 42.0808 274.078 43.4437 272.397 43.4437H217.603C215.921 43.4437 214.559 42.0808 214.559 40.3996Z" fill="#BEBFC3"/>
<path d="M302.837 40.3968C302.837 43.7592 300.111 46.485 296.748 46.485C293.386 46.485 290.66 43.7592 290.66 40.3968C290.66 37.0344 293.386 34.3086 296.748 34.3086C300.111 34.3086 302.837 37.0344 302.837 40.3968Z" fill="#BCBDBF"/>
</g>
<defs>
<filter id="filter0_d_2020_10495" x="0" y="0" width="490" height="919.219" filterUnits="userSpaceOnUse" color-interpolation-filters="sRGB">
<feFlood flood-opacity="0" result="BackgroundImageFix"/>
<feColorMatrix in="SourceAlpha" type="matrix" values="0 0 0 0 0 0 0 0 0 0 0 0 0 0 0 0 0 0 127 0" result="hardAlpha"/>
<feMorphology radius="12" operator="erode" in="SourceAlpha" result="effect1_dropShadow_2020_10495"/>
<feOffset dy="25"/>
<feGaussianBlur stdDeviation="25"/>
<feComposite in2="hardAlpha" operator="out"/>
<feColorMatrix type="matrix" values="0 0 0 0 0 0 0 0 0 0 0 0 0 0 0 0 0 0 0.25 0"/>
<feBlend mode="normal" in2="BackgroundImageFix" result="effect1_dropShadow_2020_10495"/>
<feBlend mode="normal" in="SourceGraphic" in2="effect1_dropShadow_2020_10495" result="shape"/>
</filter>
<clipPath id="clip0_2020_10495">
<rect width="372" height="822" fill="white" transform="translate(59 31)"/>
</clipPath>
</defs>
</svg>
