<svg width="1157" height="170" viewBox="0 0 1157 170" fill="none" xmlns="http://www.w3.org/2000/svg">
<path d="M44.0875 170H0.962524L58.6188 0.3125H111.588L169.009 170H126.119L114.634 133.672H55.5719L44.0875 170ZM65.1813 103.203H105.025L85.8063 42.2656H84.4L65.1813 103.203ZM194.256 170V0.3125H263.631C301.834 0.3125 325.389 21.9922 325.272 56.5625C325.389 80 314.608 96.6406 295.858 105.195L331.366 170H287.538L256.366 111.641H234.1V170H194.256ZM234.1 79.7656H255.194C274.061 79.8828 284.022 72.5 284.022 56.5625C284.022 40.625 274.061 32.6562 255.194 32.6562H234.1V79.7656ZM349.113 32.8906V0.3125H491.847V32.8906H440.284V170H400.675V32.8906H349.113ZM555.766 0.3125L594.438 125.469H595.844L634.516 0.3125H679.047L621.625 170H568.656L511 0.3125H555.766ZM744.138 0.3125V170H704.294V0.3125H744.138ZM777.119 170V0.3125H894.541V32.8906H816.963V68.75H888.447V101.328H816.963V137.422H894.775V170H777.119ZM967.366 170L918.381 0.3125H962.444L988.459 112.812H989.866L1019.4 0.3125H1055.73L1085.49 113.047H1086.66L1112.91 0.3125H1156.98L1107.76 170H1069.32L1038.38 65.4688H1036.98L1006.04 170H967.366Z" fill="white"/>
</svg>
