<svg width="699" height="699" viewBox="0 0 699 699" fill="none" xmlns="http://www.w3.org/2000/svg">
<path d="M349.5 699C542.524 699 699 542.524 699 349.5C699 156.476 542.524 0 349.5 0C156.476 0 0 156.476 0 349.5C0 542.524 156.476 699 349.5 699Z" fill="#FF9900"/>
<path d="M273.251 327.044C273.251 331.344 273.729 334.825 274.548 337.351C275.504 339.945 276.664 342.744 278.303 345.747C278.917 346.635 279.122 347.59 279.122 348.409C279.122 349.57 278.439 350.73 276.938 351.891L269.633 356.737C268.746 357.352 267.722 357.761 266.63 357.761C265.47 357.761 264.309 357.147 263.149 356.123C261.579 354.417 260.213 352.642 258.985 350.662C257.688 348.409 256.459 346.157 255.367 343.836C246.288 354.553 234.888 359.877 221.168 359.877C211.406 359.877 203.624 357.079 197.959 351.55C192.293 345.952 189.358 338.512 189.358 329.228C189.358 319.33 192.839 311.343 199.938 305.268C207.037 299.193 216.458 296.189 228.403 296.189C232.363 296.189 236.458 296.531 240.691 297.145C244.991 297.759 249.428 298.647 254.07 299.739V291.274C254.07 282.469 252.227 276.257 248.609 272.707C244.923 269.089 238.643 267.383 229.7 267.383C225.605 267.383 221.441 267.861 217.14 268.885C212.84 269.908 208.676 271.205 204.58 272.844C203.283 273.458 201.918 273.936 200.484 274.345C199.87 274.55 199.256 274.619 198.641 274.687C197.003 274.687 196.184 273.526 196.184 271.069V265.403C196.184 263.56 196.389 262.127 197.003 261.308C197.89 260.284 198.983 259.396 200.28 258.85C204.375 256.734 209.222 255.027 214.888 253.594C220.826 252.092 226.902 251.341 233.045 251.41C246.902 251.41 257.005 254.55 263.49 260.83C269.907 267.11 273.115 276.598 273.115 289.431V327.112L273.251 327.044ZM226.083 344.723C229.905 344.723 233.864 344.041 238.028 342.607C242.192 341.242 245.947 338.648 249.087 335.167C250.93 332.982 252.363 330.525 253.046 327.726C253.729 324.927 254.206 321.583 254.206 317.623V312.777C250.657 311.889 247.107 311.275 243.489 310.797C239.871 310.319 236.185 310.115 232.567 310.115C224.786 310.115 219.052 311.616 215.229 314.756C211.406 317.896 209.563 322.333 209.563 328.136C209.563 333.597 210.928 337.692 213.864 340.423C216.662 343.358 220.69 344.723 226.083 344.723ZM319.396 357.284C317.28 357.284 315.915 356.942 314.959 356.123C314.004 355.44 313.184 353.802 312.502 351.618L285.197 261.785C284.651 260.284 284.31 258.714 284.173 257.144C284.173 255.3 285.129 254.208 286.972 254.208H298.372C300.556 254.208 302.058 254.55 302.877 255.369C303.833 256.051 304.515 257.69 305.198 259.942L324.721 336.873L342.878 259.942C343.493 257.621 344.175 256.12 345.063 255.369C346.428 254.481 348.066 254.072 349.704 254.208H359.056C361.241 254.208 362.811 254.55 363.698 255.369C364.586 256.051 365.473 257.69 365.882 259.942L384.245 337.829L404.382 259.942C405.065 257.621 405.884 256.12 406.703 255.369C408.068 254.481 409.638 254.072 411.208 254.208H422.062C423.905 254.208 424.997 255.164 424.997 257.144C424.997 257.758 424.861 258.304 424.724 258.987C424.519 260.011 424.246 260.966 423.905 261.922L395.918 351.754C395.235 354.075 394.416 355.577 393.46 356.26C392.163 357.079 390.593 357.488 389.023 357.42H378.989C376.804 357.42 375.303 357.079 374.347 356.26C373.46 355.44 372.64 353.939 372.163 351.618L354.141 276.666L336.257 351.55C335.643 353.87 334.96 355.372 334.073 356.191C333.117 357.01 331.479 357.352 329.431 357.352L319.396 357.284ZM468.753 360.424C462.678 360.424 456.671 359.741 450.868 358.307C445.066 356.942 440.561 355.372 437.489 353.666C435.646 352.642 434.349 351.481 433.871 350.389C433.393 349.365 433.189 348.273 433.189 347.112V341.174C433.189 338.716 434.144 337.556 435.851 337.556C436.533 337.556 437.216 337.692 437.967 337.897C438.649 338.102 439.742 338.58 440.902 339.058C444.861 340.832 449.162 342.198 453.667 343.153C458.309 344.109 462.814 344.519 467.524 344.519C474.828 344.519 480.562 343.222 484.521 340.696C488.344 338.375 490.665 334.143 490.597 329.637C490.665 326.634 489.573 323.699 487.457 321.514C485.34 319.33 481.381 317.35 475.716 315.439L458.855 310.183C450.391 307.521 444.11 303.562 440.288 298.374C436.533 293.527 434.486 287.588 434.486 281.513C434.486 276.666 435.578 272.366 437.626 268.612C439.742 264.925 442.472 261.649 446.022 259.055C449.503 256.393 453.462 254.413 458.104 252.98C462.746 251.614 467.661 251 472.78 251C475.306 251 478.036 251.137 480.562 251.478C483.224 251.819 485.682 252.297 488.139 252.775C490.46 253.389 492.713 253.935 494.761 254.618C496.877 255.3 498.515 255.983 499.675 256.734C501.041 257.417 502.269 258.441 503.157 259.669C503.908 260.83 504.249 262.127 504.181 263.492V268.953C504.181 271.41 503.225 272.707 501.519 272.707C499.949 272.502 498.447 272.025 497.082 271.342C490.051 268.27 482.474 266.7 474.76 266.837C468.139 266.837 462.882 267.861 459.265 270.113C455.647 272.298 453.804 275.711 453.804 280.421C453.804 283.697 454.964 286.496 457.285 288.68C459.606 290.865 463.906 293.117 470.05 295.097L486.569 300.285C494.897 302.947 500.972 306.702 504.59 311.48C508.208 316.258 509.915 321.719 509.915 327.726C509.915 332.709 508.891 337.283 506.911 341.242C504.795 345.201 501.996 348.683 498.447 351.481C494.829 354.417 490.528 356.464 485.545 357.966C480.153 359.604 474.692 360.424 468.753 360.424ZM490.733 416.876C452.507 445.136 396.942 460.086 349.158 460.086C282.194 460.086 221.85 435.307 176.32 394.145C172.702 390.868 175.978 386.5 180.279 389.025C229.564 417.627 290.385 434.965 353.254 434.965C395.713 434.965 442.267 426.16 485.204 408.002C491.552 405.135 497.013 412.234 490.733 416.876ZM506.638 398.787C501.723 392.507 474.282 395.783 461.858 397.285C458.172 397.763 457.558 394.486 460.971 392.029C482.815 376.67 518.72 381.107 522.953 386.226C527.117 391.483 521.792 427.388 501.314 444.59C498.174 447.252 495.17 445.887 496.535 442.406C501.177 430.87 511.553 404.93 506.638 398.787Z" fill="white"/>
</svg>
