<svg width="696" height="696" viewBox="0 0 696 696" fill="none" xmlns="http://www.w3.org/2000/svg">
<path d="M348 696C540.195 696 696 540.195 696 348C696 155.805 540.195 0 348 0C155.805 0 0 155.805 0 348C0 540.195 155.805 696 348 696Z" fill="#0091E2"/>
<path d="M562.306 313.676C561.218 312.792 551.363 305.384 530.564 305.384C525.059 305.384 519.553 305.791 514.116 306.811C510.106 279.148 487.268 265.69 486.249 265.078L480.675 261.816L477.005 267.117C472.383 274.254 469.053 282.07 467.082 290.363C463.343 306.131 465.586 320.948 473.607 333.591C463.955 338.96 448.39 340.32 445.264 340.387H188.274C181.545 340.387 176.107 345.825 176.107 352.554C175.835 375.052 179.642 397.413 187.322 418.552C196.158 441.797 209.344 458.857 226.472 469.324C245.639 481.083 276.837 487.812 312.249 487.812C328.221 487.88 344.194 486.384 359.895 483.462C381.713 479.452 402.715 471.839 422.018 460.896C437.923 451.652 452.264 439.962 464.431 426.164C484.753 403.123 496.92 377.43 505.96 354.661H509.562C531.856 354.661 545.585 345.757 553.13 338.28C558.16 333.523 562.102 327.745 564.617 321.288L566.18 316.598L562.306 313.676ZM212.063 332.979H246.523C248.154 332.979 249.514 331.62 249.514 329.988V299.334C249.514 297.703 248.154 296.344 246.523 296.276H212.063C210.432 296.276 209.072 297.635 209.072 299.266V329.988C209.072 331.688 210.432 332.979 212.063 332.979ZM259.573 332.979H294.033C295.664 332.979 297.024 331.62 297.024 329.988V299.334C297.024 297.703 295.664 296.344 294.033 296.276H259.573C257.874 296.276 256.514 297.635 256.514 299.334V329.988C256.514 331.688 257.874 332.979 259.573 332.979ZM307.695 333.047H342.155C343.786 333.047 345.146 331.688 345.146 330.056V299.402C345.146 297.771 343.786 296.412 342.155 296.344H307.695C306.064 296.344 304.704 297.703 304.704 299.334V330.056C304.704 331.688 306.064 332.979 307.695 333.047ZM355.341 333.047H389.801C391.432 333.047 392.792 331.688 392.86 330.056V299.402C392.86 297.703 391.5 296.344 389.801 296.344H355.341C353.71 296.344 352.35 297.703 352.35 299.334V330.056C352.35 331.688 353.642 333.047 355.341 333.047ZM259.505 288.867H293.965C295.596 288.867 296.956 287.508 296.956 285.809V255.155C296.956 253.523 295.596 252.164 293.965 252.164H259.505C257.806 252.164 256.514 253.523 256.446 255.155V285.809C256.514 287.508 257.874 288.867 259.505 288.867ZM307.695 288.867H342.155C343.786 288.867 345.146 287.508 345.146 285.809V255.155C345.146 253.523 343.786 252.164 342.155 252.164H307.695C306.064 252.164 304.704 253.523 304.704 255.155V285.809C304.704 287.508 306.064 288.867 307.695 288.867ZM355.341 288.867H389.801C391.5 288.867 392.792 287.508 392.86 285.809V255.155C392.86 253.455 391.5 252.164 389.801 252.164H355.341C353.71 252.164 352.35 253.523 352.35 255.155V285.809C352.35 287.508 353.642 288.867 355.341 288.867ZM355.341 244.755H389.801C391.5 244.755 392.86 243.396 392.86 241.697V210.975C392.86 209.344 391.5 207.984 389.801 207.984H355.341C353.71 207.984 352.35 209.344 352.35 210.975V241.697C352.35 243.396 353.642 244.755 355.341 244.755ZM403.327 333.047H437.787C439.418 333.047 440.778 331.688 440.778 330.056V299.402C440.778 297.703 439.418 296.412 437.787 296.344H403.327C401.696 296.344 400.336 297.703 400.336 299.334V330.056C400.336 331.688 401.696 333.047 403.327 333.047Z" fill="white"/>
</svg>
