<svg width="696" height="696" viewBox="0 0 696 696" fill="none" xmlns="http://www.w3.org/2000/svg">
<g clip-path="url(#clip0_2017_3812)">
<path d="M348 696C540.195 696 696 540.195 696 348C696 155.805 540.195 0 348 0C155.805 0 0 155.805 0 348C0 540.195 155.805 696 348 696Z" fill="#23272D"/>
<path d="M348.306 341.937C364.88 341.937 378.316 328.502 378.316 311.928C378.316 295.353 364.88 281.918 348.306 281.918C331.733 281.918 318.296 295.353 318.296 311.928C318.296 328.502 331.733 341.937 348.306 341.937Z" fill="#61DAFB"/>
<path d="M348.316 373.413C437.25 373.413 509.345 345.886 509.345 311.93C509.345 277.973 437.25 250.445 348.316 250.445C259.383 250.445 187.287 277.973 187.287 311.93C187.287 345.886 259.383 373.413 348.316 373.413Z" stroke="#61DAFB" stroke-width="11.5682"/>
<path d="M295.064 342.672C339.531 419.69 399.418 468.363 428.825 451.384C458.233 434.406 446.024 358.206 401.557 281.187C357.09 204.168 297.204 155.496 267.796 172.474C238.389 189.452 250.597 265.652 295.064 342.672Z" stroke="#61DAFB" stroke-width="11.5682"/>
<path d="M295.064 281.186C250.597 358.206 238.389 434.405 267.796 451.384C297.204 468.361 357.09 419.689 401.557 342.67C446.024 265.65 458.233 189.451 428.825 172.472C399.418 155.494 339.531 204.167 295.064 281.186Z" stroke="#61DAFB" stroke-width="11.5682"/>
<path d="M179.267 540.349V495.057H198.514C203.355 495.057 206.866 495.469 209.049 496.293C211.253 497.095 213.014 498.538 214.332 500.618C215.651 502.697 216.31 505.077 216.31 507.754C216.31 511.153 215.311 513.964 213.312 516.188C211.315 518.393 208.329 519.782 204.353 520.359C206.331 521.513 207.958 522.78 209.235 524.16C210.532 525.54 212.272 527.99 214.456 531.513L219.986 540.349H209.049L202.438 530.493C200.09 526.971 198.484 524.757 197.618 523.851C196.753 522.923 195.836 522.296 194.868 521.967C193.9 521.616 192.367 521.441 190.266 521.441H188.412V540.349H179.267ZM188.412 514.212H195.177C199.564 514.212 202.304 514.026 203.395 513.655C204.487 513.284 205.343 512.646 205.96 511.74C206.578 510.833 206.886 509.7 206.886 508.341C206.886 506.818 206.475 505.592 205.651 504.665C204.848 503.717 203.705 503.12 202.222 502.873C201.48 502.77 199.256 502.719 195.548 502.719H188.412V514.212ZM240.735 529.906L249.385 531.359C248.273 534.53 246.513 536.949 244.102 538.619C241.713 540.266 238.716 541.09 235.112 541.09C229.408 541.09 225.185 539.226 222.445 535.498C220.283 532.512 219.202 528.742 219.202 524.19C219.202 518.754 220.623 514.5 223.465 511.43C226.307 508.341 229.901 506.796 234.247 506.796C239.129 506.796 242.98 508.413 245.802 511.647C248.624 514.86 249.973 519.794 249.849 526.446H228.099C228.161 529.02 228.861 531.028 230.2 532.47C231.539 533.891 233.207 534.602 235.205 534.602C236.564 534.602 237.708 534.231 238.634 533.49C239.562 532.748 240.261 531.554 240.735 529.906ZM241.23 521.131C241.168 518.619 240.518 516.714 239.283 515.417C238.047 514.098 236.544 513.439 234.772 513.439C232.878 513.439 231.312 514.13 230.076 515.509C228.841 516.89 228.233 518.764 228.254 521.131H241.23ZM260.28 517.548L252.401 516.126C253.287 512.955 254.81 510.607 256.973 509.083C259.136 507.559 262.349 506.796 266.613 506.796C270.484 506.796 273.368 507.261 275.263 508.187C277.158 509.093 278.487 510.257 279.249 511.678C280.031 513.079 280.423 515.663 280.423 519.433L280.33 529.566C280.33 532.45 280.464 534.582 280.732 535.961C281.021 537.32 281.546 538.783 282.307 540.349H273.719C273.492 539.771 273.214 538.917 272.885 537.785C272.741 537.27 272.637 536.929 272.575 536.765C271.093 538.206 269.506 539.288 267.818 540.008C266.129 540.729 264.327 541.09 262.411 541.09C259.033 541.09 256.366 540.174 254.409 538.34C252.473 536.508 251.505 534.19 251.505 531.389C251.505 529.535 251.948 527.888 252.834 526.446C253.72 524.983 254.955 523.871 256.542 523.109C258.147 522.326 260.454 521.646 263.461 521.071C267.519 520.307 270.33 519.598 271.895 518.938V518.073C271.895 516.405 271.484 515.22 270.66 514.521C269.836 513.799 268.281 513.439 265.995 513.439C264.451 513.439 263.245 513.747 262.38 514.366C261.515 514.963 260.815 516.024 260.28 517.548ZM271.895 524.592C270.783 524.963 269.023 525.406 266.613 525.921C264.203 526.436 262.627 526.94 261.886 527.435C260.753 528.238 260.186 529.257 260.186 530.493C260.186 531.708 260.639 532.758 261.546 533.644C262.453 534.53 263.605 534.973 265.006 534.973C266.572 534.973 268.065 534.458 269.486 533.428C270.536 532.646 271.226 531.688 271.556 530.555C271.783 529.814 271.895 528.403 271.895 526.322V524.592ZM314.456 517.239L305.898 518.784C305.611 517.074 304.952 515.787 303.921 514.922C302.912 514.057 301.594 513.625 299.967 513.625C297.804 513.625 296.074 514.376 294.776 515.88C293.499 517.363 292.861 519.854 292.861 523.356C292.861 527.249 293.509 529.998 294.808 531.605C296.125 533.211 297.887 534.015 300.091 534.015C301.739 534.015 303.088 533.552 304.138 532.624C305.188 531.678 305.93 530.06 306.363 527.774L314.889 529.226C314.003 533.139 312.304 536.095 309.792 538.093C307.279 540.092 303.911 541.09 299.689 541.09C294.89 541.09 291.059 539.577 288.196 536.548C285.353 533.52 283.932 529.329 283.932 523.975C283.932 518.557 285.364 514.345 288.227 511.338C291.09 508.311 294.962 506.796 299.843 506.796C303.839 506.796 307.01 507.662 309.359 509.392C311.728 511.101 313.426 513.717 314.456 517.239ZM332.95 507.538V514.459H327.019V527.681C327.019 530.359 327.07 531.924 327.173 532.377C327.297 532.81 327.554 533.171 327.945 533.459C328.357 533.748 328.851 533.891 329.428 533.891C330.232 533.891 331.396 533.614 332.919 533.057L333.661 539.793C331.643 540.657 329.356 541.09 326.802 541.09C325.237 541.09 323.826 540.832 322.569 540.318C321.313 539.782 320.386 539.102 319.789 538.278C319.212 537.434 318.811 536.302 318.584 534.88C318.398 533.871 318.306 531.832 318.306 528.763V514.459H314.321V507.538H318.306V501.019L327.019 495.953V507.538H332.95ZM350.412 540.349V495.057H359.31L377.847 525.302V495.057H386.343V540.349H377.167L358.908 510.813V540.349H350.412ZM399.306 517.548L391.428 516.126C392.313 512.955 393.838 510.607 396.001 509.083C398.164 507.559 401.377 506.796 405.64 506.796C409.512 506.796 412.395 507.261 414.291 508.187C416.185 509.093 417.514 510.257 418.276 511.678C419.059 513.079 419.45 515.663 419.45 519.433L419.357 529.566C419.357 532.45 419.49 534.582 419.759 535.961C420.047 537.32 420.572 538.783 421.334 540.349H412.745C412.519 539.771 412.241 538.917 411.912 537.785C411.767 537.27 411.665 536.929 411.603 536.765C410.12 538.206 408.534 539.288 406.845 540.008C405.155 540.729 403.353 541.09 401.439 541.09C398.06 541.09 395.392 540.174 393.436 538.34C391.5 536.508 390.532 534.19 390.532 531.389C390.532 529.535 390.975 527.888 391.86 526.446C392.746 524.983 393.983 523.871 395.568 523.109C397.174 522.326 399.481 521.646 402.489 521.071C406.546 520.307 409.358 519.598 410.923 518.938V518.073C410.923 516.405 410.511 515.22 409.687 514.521C408.863 513.799 407.308 513.439 405.022 513.439C403.477 513.439 402.273 513.747 401.407 514.366C400.543 514.963 399.842 516.024 399.306 517.548ZM410.923 524.592C409.811 524.963 408.049 525.406 405.64 525.921C403.231 526.436 401.654 526.94 400.912 527.435C399.78 528.238 399.214 529.257 399.214 530.493C399.214 531.708 399.667 532.758 400.573 533.644C401.479 534.53 402.633 534.973 404.033 534.973C405.598 534.973 407.091 534.458 408.513 533.428C409.563 532.646 410.254 531.688 410.583 530.555C410.809 529.814 410.923 528.403 410.923 526.322V524.592ZM439.921 507.538V514.459H433.989V527.681C433.989 530.359 434.041 531.924 434.143 532.377C434.267 532.81 434.524 533.171 434.916 533.459C435.328 533.748 435.822 533.891 436.398 533.891C437.202 533.891 438.366 533.614 439.889 533.057L440.631 539.793C438.613 540.657 436.327 541.09 433.772 541.09C432.207 541.09 430.796 540.832 429.541 540.318C428.284 539.782 427.356 539.102 426.759 538.278C426.183 537.434 425.781 536.302 425.554 534.88C425.37 533.871 425.276 531.832 425.276 528.763V514.459H421.291V507.538H425.276V501.019L433.989 495.953V507.538H439.921ZM442.781 503.09V495.057H451.463V503.09H442.781ZM442.781 540.349V507.538H451.463V540.349H442.781ZM466.249 540.349L453.026 507.538H462.14L468.319 524.284L470.111 529.876C470.584 528.454 470.883 527.517 471.007 527.064C471.296 526.137 471.604 525.21 471.935 524.284L478.175 507.538H487.104L474.066 540.349H466.249ZM508.285 529.906L516.935 531.359C515.823 534.53 514.063 536.949 511.652 538.619C509.263 540.266 506.266 541.09 502.662 541.09C496.956 541.09 492.735 539.226 489.995 535.498C487.833 532.512 486.752 528.742 486.752 524.19C486.752 518.754 488.173 514.5 491.015 511.43C493.857 508.341 497.451 506.796 501.797 506.796C506.679 506.796 510.53 508.413 513.352 511.647C516.174 514.86 517.523 519.794 517.399 526.446H495.649C495.711 529.02 496.411 531.028 497.75 532.47C499.089 533.891 500.757 534.602 502.755 534.602C504.114 534.602 505.258 534.231 506.184 533.49C507.11 532.748 507.811 531.554 508.285 529.906ZM508.78 521.131C508.718 518.619 508.068 516.714 506.833 515.417C505.597 514.098 504.094 513.439 502.322 513.439C500.428 513.439 498.862 514.13 497.626 515.509C496.391 516.89 495.783 518.764 495.804 521.131H508.78Z" fill="#61DAFB"/>
</g>
<defs>
<clipPath id="clip0_2017_3812">
<rect width="696" height="696" fill="white"/>
</clipPath>
</defs>
</svg>
