<svg width="878" height="119" viewBox="0 0 878 119" fill="none" xmlns="http://www.w3.org/2000/svg">
<path fill-rule="evenodd" clip-rule="evenodd" d="M580.024 99.2656C580.122 66.4531 601.021 44.5781 633.735 44.5781C665.181 44.5781 685.981 64.793 686.079 98.875V107.664H616.548V109.031C616.548 112.454 617.215 115.558 618.488 118.211H582.512C580.893 112.492 580.043 106.159 580.024 99.2656ZM651.899 86.9609H616.548C616.841 77.3906 624.653 70.6523 634.517 70.75C644.38 70.6523 651.802 77.3906 651.899 86.9609Z" fill="white"/>
<path d="M361.899 45.9453H400.767L418.54 116.844H419.517L437.485 45.9453H476.157L450.177 118.211H384.137L361.899 45.9453Z" fill="white"/>
<path fill-rule="evenodd" clip-rule="evenodd" d="M507.485 118.211V45.9453H544.399V118.211H507.485ZM507.485 17.4297C507.388 8.05469 515.689 0.4375 525.845 0.4375C535.903 0.4375 544.204 8.05469 544.204 17.4297C544.204 26.9023 535.903 34.5195 525.845 34.4219C515.689 34.5195 507.388 26.9023 507.485 17.4297ZM729.501 118.211L712.72 45.9453H749.634L762.329 111.57H763.306L777.368 45.9453H813.306L827.759 110.984H828.54L840.845 45.9453H877.759L857.501 118.211H804.501L795.728 93.7969H794.751L785.501 118.211H729.501Z" fill="white"/>
<path fill-rule="evenodd" clip-rule="evenodd" d="M32.3679 10.5938H82.9538L118.501 118.211H0.304688L32.3679 10.5938ZM72.6999 96.1406H42.5241L56.9773 48.6797H58.1491L72.6999 96.1406Z" fill="white"/>
<path d="M164.282 45.9453H200.024V65.8672H201.196C205.005 51.2188 213.989 44.4805 225.415 44.5781C228.638 44.4805 232.056 45.0664 234.985 45.75V77.5859C231.372 76.3164 225.122 75.6328 221.118 75.6328C209.595 75.6328 201.099 83.8359 201.196 96.1406V118.211H164.282V45.9453Z" fill="white"/>
<path d="M334.673 45.9453V72.7031H316.118V118.211H279.204V72.7031H265.532V45.9453H279.204V20.5547H316.118V45.9453H334.673Z" fill="white"/>
</svg>
